<?xml version="1.0" encoding="UTF-8"?>
<svg width="184px" height="36px" viewBox="0 0 184 36" version="1.1" xmlns="http://www.w3.org/2000/svg" xmlns:xlink="http://www.w3.org/1999/xlink">
    <g fill="#FFFFFF" fill-rule="evenodd">
        <path d="M175.784985,13.2486162 C172.917706,14.7340216 170.785127,17.8086162 170.785127,17.8086162 C170.238978,18.5934811 169.641141,19.4529405 169.452589,19.725373 C169.263713,19.9978054 169.06866,20.2702378 169.019897,20.3318595 C168.971134,20.3934811 168.743572,20.7113189 168.613536,20.899427 C168.483501,21.0875351 167.930851,21.8821297 167.387953,22.6637514 C167.387953,22.6637514 164.127317,27.3632108 159.50131,29.7567243 C154.699755,32.2475351 148.416123,32.085373 147.898907,32.0691568 L147.898907,34.6475351 C147.898907,35.3383459 148.46131,35.9026703 149.156999,35.9026703 L182.592335,35.9026703 C183.288024,35.9026703 183.850427,35.3415892 183.850427,34.6475351 L183.850427,11.8929405 C183.743148,11.9156432 183.635869,11.9286162 183.525339,11.9318595 C183.528589,11.9318595 178.112618,12.0421297 175.784985,13.2486162 M182.595586,0.0388864865 L149.156999,0.0388864865 C148.46131,0.0388864865 147.898907,0.599967568 147.898907,1.29402162 L147.898907,24.0226703 C147.960674,24.0129405 148.01919,24.0096973 148.080957,24.0096973 C148.080957,24.0096973 153.493678,23.9026703 155.82131,22.6961838 C158.688589,21.2075351 160.82442,18.1329405 160.82442,18.1329405 C161.367317,17.3513189 161.96548,16.4886162 162.157282,16.2161838 C162.349084,15.9437514 162.540886,15.6713189 162.589649,15.6096973 C162.638738,15.5480757 162.862724,15.2302378 162.99601,15.0421297 C163.12637,14.8540216 163.678695,14.059427 164.221593,13.2778054 C164.221593,13.2778054 167.478978,8.57834595 172.108236,6.18158919 C177.121098,3.58375135 183.746399,3.8724 183.746399,3.8724 C183.782483,3.8724 183.817918,3.87888649 183.853678,3.88212973 L183.853678,1.29077838 C183.853678,0.599967568 183.291275,0.0388864865 182.595586,0.0388864865"></path>
        <path d="M130.822147,21.2724649 C125.535886,24.2692216 124.239108,26.1859784 124.239108,28.6151676 C124.239108,30.4248973 125.172112,31.1513838 126.93409,31.1513838 C128.542953,31.1513838 129.837129,29.9611135 130.822147,28.5665189 L130.822147,21.2724649 Z M118.849143,15.7394919 C119.161228,10.1027351 122.7372,7.05084324 128.179179,7.05084324 C133.568818,7.05084324 136.6279,9.53192432 136.6279,14.6011135 L136.6279,32.4421946 C136.6279,33.3211135 136.832705,34.4594919 136.991999,35.3903027 L131.446317,35.3903027 C131.394302,34.6151676 131.186246,33.8919243 131.134232,33.2173297 C128.95614,34.9751676 127.142147,35.9059784 124.342811,35.9059784 C120.402741,35.9059784 118.435956,33.2173297 118.435956,29.6497622 C118.435956,23.5459784 122.477129,20.1859784 130.825398,17.0335459 L130.825398,15.3794919 C130.825398,13.0540865 129.892394,11.8119243 127.974048,11.8119243 C125.33108,11.8119243 124.762175,13.3621946 124.658472,15.7427351 L118.849143,15.7427351 L118.849143,15.7394919 Z"></path>
        <path d="M102.779767,12.3275676 L102.779767,7.56972973 L105.995216,7.56972973 L105.995216,0.0713513514 L111.800968,0.0713513514 L111.800968,7.56972973 L115.689025,7.56972973 L115.689025,12.3275676 L111.800968,12.3275676 L111.800968,28.3556757 C111.800968,29.8021622 112.421887,30.6324324 113.771329,30.6324324 L115.689025,30.6324324 L115.689025,35.5978378 C114.912064,35.8054054 114.239131,35.9091892 112.785986,35.9091892 C108.433378,35.9091892 105.998141,33.8918919 105.998141,29.652973 L105.998141,12.3308108 L102.779767,12.3308108 L102.779767,12.3275676 Z"></path>
        <path d="M95.4751293,15.2756432 C95.0590163,13.0507784 94.0219845,11.8118595 92.1559774,11.8118595 C90.6540693,11.8118595 89.6170375,12.5869946 89.6170375,14.0334811 C89.6170375,18.379427 100.500995,20.1372649 100.500995,28.4107784 C100.500995,33.3761838 97.0810657,35.9091568 92.3640339,35.9091568 C87.2861541,35.9091568 84.3831152,33.0129405 83.5021258,28.1545622 L88.5800057,26.7567243 C88.9441046,29.0821297 89.7730799,31.1545622 92.4160481,31.1545622 C93.9179562,31.1545622 95.0073272,30.2756432 95.0073272,28.7221297 C95.0073272,23.9124 84.1197936,22.1026703 84.1197936,14.5037514 C84.1197936,10.1091568 87.539723,7.05726486 91.8959067,7.05726486 C96.4572212,7.05726486 99.5159774,10.1091568 100.396967,14.4518595 L95.4751293,15.2756432 Z"></path>
        <path d="M73.4439576,35.3902703 L79.2500353,35.3902703 L79.2500353,7.56972973 L73.4439576,7.56972973 L73.4439576,35.3902703 Z M73.4439576,5.27351351 L79.2500353,5.27351351 L79.2500353,0 L73.4439576,0 L73.4439576,5.27351351 Z"></path>
        <path d="M56.7018431,12.3275676 L56.7018431,7.56972973 L59.9169668,7.56972973 L59.9169668,0.0713513514 L65.7230445,0.0713513514 L65.7230445,7.56972973 L69.6111011,7.56972973 L69.6111011,12.3275676 L65.7230445,12.3275676 L65.7230445,28.3556757 C65.7230445,29.8021622 66.3439633,30.6324324 67.6930799,30.6324324 L69.6111011,30.6324324 L69.6111011,35.5978378 C68.8341399,35.8054054 68.1612071,35.9091892 66.7080622,35.9091892 C62.3551293,35.9091892 59.9169668,33.8918919 59.9169668,29.652973 L59.9169668,12.3308108 L56.7018431,12.3308108 L56.7018431,12.3275676 Z"></path>
        <path d="M47.3198261,21.2724649 C42.0338898,24.2692216 40.7367873,26.1859784 40.7367873,28.6151676 C40.7367873,30.4248973 41.6697908,31.1513838 43.4317696,31.1513838 C45.0409569,31.1513838 46.3348085,29.9611135 47.3198261,28.5665189 L47.3198261,21.2724649 Z M35.3468226,15.7394919 C35.6589074,10.1027351 39.2348792,7.05084324 44.676858,7.05084324 C50.0668226,7.05084324 53.1259039,9.53192432 53.1259039,14.6011135 L53.1259039,32.4421946 C53.1259039,33.3211135 53.3307095,34.4594919 53.4867519,35.3903027 L47.9407449,35.3903027 C47.8887307,34.6151676 47.6806742,33.8919243 47.6286601,33.2173297 C45.4505682,34.9751676 43.6365753,35.9059784 40.8375647,35.9059784 C36.897494,35.9059784 34.9307095,33.2173297 34.9307095,29.6497622 C34.9307095,23.5459784 38.9715576,20.1859784 47.3165753,17.0335459 L47.3165753,15.3794919 C47.3165753,13.0540865 46.3835717,11.8119243 44.4655505,11.8119243 C41.8225823,11.8119243 41.2536777,13.3621946 41.1463986,15.7427351 L35.3468226,15.7427351 L35.3468226,15.7394919 Z"></path>
        <path d="M19.2809569,12.3275676 L19.2809569,7.56972973 L22.4928297,7.56972973 L22.4928297,0.0713513514 L28.2989074,0.0713513514 L28.2989074,7.56972973 L32.186964,7.56972973 L32.186964,12.3275676 L28.2989074,12.3275676 L28.2989074,28.3556757 C28.2989074,29.8021622 28.9198261,30.6324324 30.2689428,30.6324324 L32.186964,30.6324324 L32.186964,35.5978378 C31.4067519,35.8054054 30.7338191,35.9091892 29.2839251,35.9091892 C24.9309922,35.9091892 22.4928297,33.8918919 22.4928297,29.652973 L22.4928297,12.3308108 L19.2809569,12.3308108 L19.2809569,12.3275676 Z"></path>
        <path d="M11.972971,15.2756432 C11.556858,13.0507784 10.5198261,11.8118595 8.65381908,11.8118595 C7.15191095,11.8118595 6.11487915,12.5869946 6.11487915,14.0334811 C6.11487915,18.379427 16.9988367,20.1372649 16.9988367,28.4107784 C16.9988367,33.3761838 13.5756565,35.9091568 8.86187562,35.9091568 C3.78399576,35.9091568 0.88095689,33.0129405 -3.25088339e-05,28.1545622 L5.07784735,26.7567243 C5.44194629,29.0821297 6.27092155,31.1545622 8.91388975,31.1545622 C10.4157979,31.1545622 11.5048438,30.2756432 11.5048438,28.7221297 C11.5048438,23.9124 0.620886219,22.1026703 0.620886219,14.5037514 C0.620886219,10.1091568 4.04081555,7.05726486 8.39699929,7.05726486 C12.9579887,7.05726486 16.01707,10.1091568 16.8980594,14.4518595 L11.972971,15.2756432 Z"></path>
    </g>
</svg>
